<svg preserveAspectRatio="none" width="100%" height="100%" overflow="visible" style="display: block;" viewBox="0 0 24 24" fill="none" xmlns="http://www.w3.org/2000/svg">
<g id="shape-03">
<g id="shape-03_2">
<path d="M12 8L8.5 6V2L12 0L15.5 2V6L12 8Z" fill="var(--fill-0, #101010)"/>
<path d="M19 12L15.5 10V6L19 4L22.5 6V10L19 12Z" fill="var(--fill-0, #101010)"/>
<path d="M15.5 18V14L19 12L22.5 14V18L19 20L15.5 18Z" fill="var(--fill-0, #101010)"/>
<path d="M8.5 18L12 16L15.5 18V22L12 24L8.5 22V18Z" fill="var(--fill-0, #101010)"/>
<path d="M5 12L8.5 14V18L5 20L1.5 18V14L5 12Z" fill="var(--fill-0, #101010)"/>
<path d="M5 12L8.5 10V6L5 4L1.5 6V10L5 12Z" fill="var(--fill-0, #101010)"/>
</g>
</g>
</svg>
